<?xml version="1.0" encoding="utf-8"?>
<!-- Generator: Adobe Illustrator 24.3.0, SVG Export Plug-In . SVG Version: 6.00 Build 0)  -->
<svg version="1.1" id="Capa_1" xmlns="http://www.w3.org/2000/svg" xmlns:xlink="http://www.w3.org/1999/xlink" x="0px" y="0px"
	 viewBox="0 0 490 490" style="enable-background:new 0 0 490 490;" xml:space="preserve">
<g>
	<path d="M425.7,200.7L250.1,95.1c-3.2-1.9-7.1-1.9-10.3,0L64.3,200.7c-3,1.8-4.8,5-4.8,8.6v246.3c0,5.5,4.5,10,10,10h132.7
		c5.5,0,10-4.5,10-10v-99h65.8v99c0,5.5,4.5,10,10,10h132.7c5.5,0,10-4.5,10-10V209.3C430.5,205.8,428.7,202.5,425.7,200.7z
		 M410.6,445.6H297.9h0v-99c0-5.5-4.5-10-10-10h-85.8c-5.5,0-10,4.5-10,10v99H79.4V214.9L245,115.3l165.6,99.6V445.6z"/>
	<path d="M485.2,167.3l-235-141.4c-3.2-1.9-7.1-1.9-10.3,0L4.8,167.3c-4.7,2.8-6.2,9-3.4,13.7c2.8,4.7,9,6.2,13.7,3.4L245,46.1
		l229.9,138.3c1.6,1,3.4,1.4,5.1,1.4c3.4,0,6.7-1.7,8.6-4.8C491.4,176.3,489.9,170.2,485.2,167.3z"/>
	<polygon points="237.9,184.6 237.9,236 185.8,236 185.8,249.3 237.9,249.3 237.9,306.2 253.2,306.2 253.2,249.3 305.2,249.3 
		305.2,236 253.2,236 253.2,184.6 	"/>
</g>
</svg>
