<?xml version="1.0" encoding="utf-8"?>
<!-- Generator: Adobe Illustrator 24.3.0, SVG Export Plug-In . SVG Version: 6.00 Build 0)  -->
<svg version="1.1" id="Capa_1" xmlns="http://www.w3.org/2000/svg" xmlns:xlink="http://www.w3.org/1999/xlink" x="0px" y="0px"
	 viewBox="0 0 53 53" style="enable-background:new 0 0 53 53;" xml:space="preserve">
<g>
	<path d="M36.4,35.4c3.6-3.6,5.9-8.6,5.9-14.1c0-11-9-20-20-20s-20,9-20,20s9,20,20,20c4.8,0,9.3-1.7,12.8-4.6l14.2,14.8
		c0.2,0.2,0.4,0.3,0.7,0.3c0.2,0,0.5-0.1,0.7-0.3c0.4-0.4,0.4-1,0-1.3L36.4,35.4z M22.2,39.4c-10,0-18.1-8.1-18.1-18.1
		S12.2,3.1,22.2,3.1s18.1,8.1,18.1,18.1S32.2,39.4,22.2,39.4z"/>
	<polygon points="47.2,5.8 47.2,0.8 45.7,0.8 45.7,5.8 40.7,5.8 40.7,7.1 45.7,7.1 45.7,12.6 47.2,12.6 47.2,7.1 52.3,7.1 52.3,5.8 
			"/>
</g>
</svg>
