<?xml version="1.0" encoding="utf-8"?>
<!-- Svg Vector Icons : http://www.onlinewebfonts.com/icon -->
<!DOCTYPE svg PUBLIC "-//W3C//DTD SVG 1.1//EN" "http://www.w3.org/Graphics/SVG/1.1/DTD/svg11.dtd">
<svg version="1.1" xmlns="http://www.w3.org/2000/svg" xmlns:xlink="http://www.w3.org/1999/xlink" x="0px" y="0px" viewBox="0 0 1000 1000" enable-background="new 0 0 1000 1000" xml:space="preserve">
<metadata> Svg Vector Icons : http://www.onlinewebfonts.com/icon </metadata>
<g><g transform="translate(0.000000,511.000000) scale(0.100000,-0.100000)"><path d="M2633.7,4459.6c-72.8-57.4-84.2-107.2-84.2-367.6c0-201,5.7-264.2,32.5-306.3c65.1-111,222.1-130.2,314-40.2l55.5,55.5v291v291l-55.5,55.5c-45.9,44-72.7,55.5-139.7,55.5C2706.5,4494.1,2656.7,4480.7,2633.7,4459.6z"/><path d="M1320.4,3902.5c-53.6-47.9-63.2-68.9-63.2-145.5c0-86.2,3.8-90,202.9-287.2c187.6-187.6,208.7-201,277.6-201c91.9,0,157,42.1,191.4,124.4c44,107.2,9.6,172.3-201,379.1c-176.1,174.2-193.3,185.7-266.1,185.7C1400.9,3958,1368.3,3944.6,1320.4,3902.5z"/><path d="M3956.6,3935c-55.5-28.7-271.8-241.2-337-329.3c-84.2-114.9-65.1-252.7,42.1-310.1c124.4-63.2,201-28.7,402,178c166.6,168.5,189.5,206.8,189.5,296.7C4251.4,3910.2,4083,4004,3956.6,3935z"/><path d="M2517,3452.6c-143.6-36.4-325.5-130.2-438.4-229.7c-438.4-384.8-457.5-1074-42.1-1485.6c415.4-411.6,1097-390.5,1481.8,45.9c356.1,404,337,1007-47.9,1391.8C3215.7,3429.6,2853.9,3533,2517,3452.6z"/><path d="M809.3,2629.4c-59.3-32.5-95.7-101.5-97.6-180c0-49.8,17.2-82.3,65.1-130.2l65.1-65.1h260.4c302.5,0,361.8,19.1,405.9,128.3c38.3,88.1,19.2,164.6-53.6,225.9c-55.5,45.9-65.1,47.9-327.4,47.9C937.6,2654.3,841.8,2646.6,809.3,2629.4z"/><path d="M4040.9,2600.7c-90-91.9-70.8-248.9,40.2-314c42.1-26.8,105.3-32.5,304.4-32.5c273.8,0,333.1,15.3,377.1,97.6c46,90,34.5,185.7-28.7,248.9l-55.5,55.5h-291h-291L4040.9,2600.7z"/><path d="M1688,1645.4c-63.2-9.6-413.5-361.8-430.8-430.7c-38.3-149.3,103.4-291,252.7-252.7c76.6,19.1,419.3,367.6,432.7,440.3C1967.5,1545.8,1835.4,1672.2,1688,1645.4z"/><path d="M3703.9,1637.7c-84.2-23-139.8-99.5-139.8-193.4c0-72.8,13.4-90,201-279.5c197.2-199.1,201-202.9,287.2-202.9c76.6,0,97.6,9.6,145.5,63.2c42.1,47.9,55.5,80.4,55.5,141.7c0,74.7-11.5,90-185.7,268C3870.5,1632,3811.1,1666.4,3703.9,1637.7z"/><path d="M2670.1,1212.7c-101.5-45.9-120.6-109.1-120.6-405.9V546.5l65.1-65.1c72.8-72.7,147.4-84.2,239.3-38.3c82.3,44,97.6,103.4,97.6,394.4c0,264.2,0,268-51.7,325.5C2836.7,1231.9,2754.4,1249.1,2670.1,1212.7z"/><path d="M3935.6-110.2c-70.8-36.4-375.2-329.3-1292.2-1248.2C1333.9-2669.8,1389.4-2604.7,1404.7-2821c19.2-271.9,306.3-440.3,564.8-333.1c40.2,17.2,178,135.9,325.4,281.4l254.6,252.7v-425v-425H1477.4c-1018.5,0-1077.8-1.9-1144.8-36.4c-310.1-158.9-310.1-572.4,0-731.3c68.9-36.4,181.9-36.4,4667.4-36.4c4485.5,0,4598.5,0,4667.4,36.4c310.1,158.9,310.1,572.4,0,731.3c-67,34.5-118.7,36.4-733.2,36.4h-660.5v836.6v836.6l543.7,547.5c449.9,453.7,547.5,560.9,576.2,637.5c91.9,245-70.8,513.1-331.2,543.7c-208.7,23-160.8,65.1-1483.7-1255.9C6776.6-2124.2,6365-2549.2,6340.1-2600.8c-53.6-109.1-51.7-264.2,5.7-373.3c65.1-122.5,178-195.3,317.8-204.9c185.7-13.4,231.6,11.5,524.5,298.6l262.3,260.4v-425v-425h-813.6h-813.6v836.6v836.6l543.7,547.5c449.9,453.7,547.5,560.9,576.2,637.5C7035-366.7,6872.3-98.7,6612-68c-208.7,23-160.8,65.1-1483.7-1255.9c-802.2-800.2-1213.8-1225.2-1238.6-1276.9c-53.6-109.1-51.7-264.2,5.7-373.3c65.1-122.5,178-195.3,317.8-204.9c185.7-13.4,231.7,11.5,524.6,298.6L5000-2620v-425v-425h-813.6h-813.6l-3.8,832.8l-5.7,832.8l532.2,532.2c551.3,551.3,626,643.3,626,784.9c0,116.8-44,220.2-126.4,304.4C4266.8-54.6,4100.2-27.8,3935.6-110.2z"/></g></g>
</svg>