<?xml version="1.0" encoding="utf-8"?>
<!-- Svg Vector Icons : http://www.onlinewebfonts.com/icon -->
<!DOCTYPE svg PUBLIC "-//W3C//DTD SVG 1.1//EN" "http://www.w3.org/Graphics/SVG/1.1/DTD/svg11.dtd">
<svg version="1.1" xmlns="http://www.w3.org/2000/svg" xmlns:xlink="http://www.w3.org/1999/xlink" x="0px" y="0px" viewBox="0 0 1000 1000" enable-background="new 0 0 1000 1000" xml:space="preserve">
<metadata> Svg Vector Icons : http://www.onlinewebfonts.com/icon </metadata>
<g><path d="M28,990h943.5V695.2H28V990z M81,748.2h837.4v188.7h-18.7v-58.5c0-5.4-4.4-9.8-9.8-9.8c-5.4,0-9.9,4.4-9.9,9.8v58.5h-39.6v-58.5c0-5.4-4.4-9.8-9.8-9.8c-5.5,0-9.9,4.4-9.9,9.8v58.5h-39.7V828.6c0-5.4-4.4-9.8-9.8-9.8c-5.4,0-9.8,4.4-9.8,9.8v108.4h-39.7v-58.5c0-5.4-4.4-9.8-9.9-9.8c-5.4,0-9.8,4.4-9.8,9.8v58.5h-39.6v-58.5c0-5.4-4.4-9.8-9.8-9.8c-5.4,0-9.8,4.4-9.8,9.8v58.5h-39.6V828.6c0-5.4-4.4-9.8-9.9-9.8c-5.4,0-9.8,4.4-9.8,9.8v108.4h-39.7v-58.5c0-5.4-4.4-9.8-9.8-9.8c-5.4,0-9.8,4.4-9.8,9.8v58.5h-39.6v-58.5c0-5.4-4.4-9.8-9.9-9.8c-5.4,0-9.8,4.4-9.8,9.8v58.5h-39.5V828.6c0-5.4-4.4-9.8-9.9-9.8c-5.4,0-9.8,4.4-9.8,9.8v108.4H366v-58.5c0-5.4-4.4-9.8-9.9-9.8c-5.4,0-9.8,4.4-9.8,9.8v58.5h-39.6v-58.5c0-5.4-4.4-9.8-9.8-9.8c-5.5,0-9.9,4.4-9.9,9.8v58.5h-39.5V828.6c0-5.4-4.4-9.8-9.9-9.8s-9.8,4.4-9.8,9.8v108.4h-39.7v-58.5c0-5.4-4.4-9.8-9.8-9.8c-5.5,0-9.9,4.4-9.9,9.8v58.5h-39.6v-58.5c0-5.4-4.4-9.8-9.9-9.8c-5.4,0-9.8,4.4-9.8,9.8v58.5H81V748.2z"/><path d="M935.2,473.2L820.4,146.5h19.1V10H703.1v40.3c-3.1-0.9-6.2-1.5-9.5-1.5h-516V10H41v136.5h37.1c0,0.7-0.2,1.4-0.2,2.1v324.5H41v136.5h136.5V563c3.8,1.4,7.8,2.3,12.1,2.3h636.5c3.3,0,6.5-0.7,9.6-1.5v45.8H972V473.1L935.2,473.2L935.2,473.2z M826.1,496.5H189.6c-4.3,0-8.3,0.9-12.1,2.3v-25.7h-30.8V148.6c0-0.7-0.2-1.4-0.2-2.1h31v-28.9h516c3.3,0,6.5-0.6,9.5-1.5v30.4h44.4l114.8,326.7h-26.6v24.9C832.5,497.1,829.4,496.5,826.1,496.5z"/></g>
</svg>