<?xml version="1.0" encoding="utf-8"?>
<!-- Svg Vector Icons : http://www.onlinewebfonts.com/icon -->
<!DOCTYPE svg PUBLIC "-//W3C//DTD SVG 1.1//EN" "http://www.w3.org/Graphics/SVG/1.1/DTD/svg11.dtd">
<svg version="1.1" xmlns="http://www.w3.org/2000/svg" xmlns:xlink="http://www.w3.org/1999/xlink" x="0px" y="0px" viewBox="0 0 1000 1000" enable-background="new 0 0 1000 1000" xml:space="preserve">
<metadata> Svg Vector Icons : http://www.onlinewebfonts.com/icon </metadata>
<g><path d="M10,500c0-37.8,30.6-68.4,68.4-68.4c37.8,0,68.4,30.6,68.4,68.4c0,37.8-30.6,68.4-68.4,68.4C40.6,568.4,10,537.8,10,500L10,500L10,500z M78.4,929c37.8,0,68.4-30.6,68.4-68.4c0-37.8-30.6-68.4-68.4-68.4c-37.8,0-68.4,30.6-68.4,68.4C10,898.4,40.6,929,78.4,929L78.4,929L78.4,929z M78.4,207.8c37.8,0,68.4-30.6,68.4-68.4c0-37.8-30.6-68.4-68.4-68.4C40.6,71,10,101.6,10,139.4S40.6,207.8,78.4,207.8L78.4,207.8L78.4,207.8z M283.6,93.8c-25.2,0-45.6,20.2-45.6,45.6c0,25.2,20.5,45.6,45.6,45.6h660.8c25.2,0,45.6-20.2,45.6-45.6c0-25.2-20.5-45.6-45.6-45.6H283.6z M283.6,454.4c-25.2,0-45.6,20.2-45.6,45.6c0,25.2,20.5,45.6,45.6,45.6h660.8c25.2,0,45.6-20.2,45.6-45.6c0-25.2-20.5-45.6-45.6-45.6H283.6z M283.6,815c-25.2,0-45.6,20.2-45.6,45.6c0,25.2,20.5,45.6,45.6,45.6h660.8c25.2,0,45.6-20.2,45.6-45.6c0-25.2-20.5-45.6-45.6-45.6H283.6z"/></g>
</svg>