<?xml version="1.0" encoding="utf-8"?>
<!-- Svg Vector Icons : http://www.onlinewebfonts.com/icon -->
<!DOCTYPE svg PUBLIC "-//W3C//DTD SVG 1.1//EN" "http://www.w3.org/Graphics/SVG/1.1/DTD/svg11.dtd">
<svg version="1.1" xmlns="http://www.w3.org/2000/svg" xmlns:xlink="http://www.w3.org/1999/xlink" x="0px" y="0px" viewBox="0 0 1000 1000" enable-background="new 0 0 1000 1000" xml:space="preserve">
<metadata> Svg Vector Icons : http://www.onlinewebfonts.com/icon </metadata>
<g><g transform="translate(0.000000,512.000000) scale(0.100000,-0.100000)"><path d="M4896.2,4985.5c-68.9-42.1-114.9-149.3-91.9-216.3c5.7-23,45.9-84.2,88.1-137.8c97.6-124.4,162.7-250.8,199.1-398.2c65.1-248.9-9.6-451.8-260.4-733.2c-335-373.3-426.9-769.6-271.9-1190.8c97.6-266.1,289.1-526.5,403.9-551.4c128.3-26.8,271.8,112.9,241.2,235.5c-5.7,26.8-51.7,101.5-99.6,166.6c-296.7,392.5-281.4,721.7,49.8,1091.2c250.8,277.6,342.7,476.7,359.9,765.8c15.3,285.2-74.7,562.8-269.9,828.9C5116.4,5018,5016.9,5058.2,4896.2,4985.5z"/><path d="M3069.9,3360.1c-47.9-23-74.7-53.6-93.8-109.1c-24.9-74.7-24.9-82.3,45.9-224c84.2-176.1,82.3-202.9-36.4-350.3c-162.7-199.1-189.5-440.3-74.7-683.5c99.5-208.7,206.8-277.6,338.8-216.3c61.3,28.7,126.4,122.5,126.4,181.9c0,11.5-30.6,84.2-67,158.9c-36.4,74.7-67,151.3-67,170.4c0,49.8,44,132.1,95.7,178c23,21.1,65.1,82.3,91.9,134c44,82.3,51.7,120.6,51.7,258.4c0,143.6-7.7,178-59.3,287.2c-67,137.8-122.5,204.8-193.4,231.7C3165.6,3400.3,3146.5,3400.3,3069.9,3360.1z"/><path d="M6561.8,3377.4c-63.2-26.8-122.5-114.9-122.5-183.8c0-34.5,26.8-112.9,57.4-172.3c76.6-145.5,74.7-195.3-19.1-312.1c-191.4-239.3-218.3-472.9-84.2-739c93.8-189.5,191.4-248.9,319.7-195.3c70.8,28.7,128.3,111,128.3,183.8c0,21.1-24.9,88.1-57.4,147.4c-84.2,157-78.5,225.9,34.5,375.2c113,147.4,145.5,256.5,134,432.7c-11.5,149.3-105.3,365.7-187.6,426.9C6705.4,3383.1,6615.4,3398.4,6561.8,3377.4z"/><path d="M2212.2,1325.1c-90-26.8-225.9-168.5-252.7-264.2c-13.4-53.6-19.1-369.5-15.3-982.1l5.7-905.5l45.9-72.7c59.4-95.7,174.2-180,269.9-195.3l76.6-13.4v-1835.9V-4780h2661h2661v1835.9v1835.9l76.6,13.4c95.7,15.3,210.6,99.6,269.9,195.3l46,72.7v949.6v947.6l-53.6,80.4c-28.7,44-88.1,103.4-132.1,132.1l-80.4,53.6l-2756.7,3.8C3309.2,1342.3,2252.4,1336.6,2212.2,1325.1z M2763.6,787.1c7.7-120.6,17.2-155.1,55.5-195.3c59.4-63.2,134-78.5,218.2-42.1c91.9,38.3,128.3,114.9,128.3,269.9v124.4h201h201V827.3c0-145.5,40.2-233.6,124.4-273.8c78.5-38.3,93.8-38.3,172.3,0c84.2,40.2,124.4,128.3,124.4,273.8v116.8h201h201V819.7c0-155.1,36.4-231.7,128.3-269.9c51.7-23,80.4-24.9,130.2-7.7c105.3,34.5,132.1,82.3,143.6,247l9.6,145.5h201h201l9.6-147.4c7.7-120.6,17.2-155.1,55.5-195.3c59.3-63.2,134-78.5,218.2-42.1c91.9,38.3,128.3,114.9,128.3,269.9v124.4h201h201V827.3c0-145.5,40.2-233.6,124.4-273.8c78.5-38.3,93.8-38.3,172.3,0c84.2,40.2,124.4,128.3,124.4,273.8v116.8h201h201V815.9c0-160.8,42.1-239.3,143.6-273.8c53.6-17.2,82.3-17.2,124.4,0c97.6,40.2,124.4,86.1,134,247l9.6,145.5h201h201V120.9v-813.6H5003.5H2352l-5.7,794.5c-1.9,436.5,0,806,5.7,819.4c5.7,17.2,59.4,23,204.8,19.1l197.2-5.7L2763.6,787.1z M3985-1510.2l-5.7-407.8l-606.9-5.7l-608.8-3.8v411.6v411.6h612.6h612.6L3985-1510.2z M5616.1-1515.9v-411.6h-612.6h-612.6v411.6v411.6h612.6h612.6V-1515.9z M7243.3-1515.9v-411.6l-606.9,3.8l-608.8,5.7l-5.7,407.8l-3.8,405.9h612.6h612.6V-1515.9z M3165.6-2741.1v-411.6h-201h-201v411.6v411.6h201h201V-2741.1z M4792.9-2741.1v-411.6l-606.9,3.8l-608.8,5.7l-5.7,407.8l-3.8,405.9h612.6h612.6V-2741.1z M6435.4-2735.4l-5.7-407.8l-606.9-5.7l-608.8-3.8v411.6v411.6h612.6h612.6L6435.4-2735.4z M7243.3-2741.1v-411.6h-201h-201v411.6v411.6h201h201V-2741.1z M3985-3960.6l-5.7-407.8l-606.9-5.7l-608.8-3.8v411.6v411.6h612.6h612.6L3985-3960.6z M5616.1-3966.4V-4378h-612.6h-612.6v411.6v411.6h612.6h612.6V-3966.4z M7243.3-3966.4V-4378l-606.9,3.8l-608.8,5.7l-5.7,407.8l-3.8,405.9h612.6h612.6V-3966.4z"/></g></g>
</svg>