<?xml version="1.0" encoding="utf-8"?>
<!-- Svg Vector Icons : http://www.onlinewebfonts.com/icon -->
<!DOCTYPE svg PUBLIC "-//W3C//DTD SVG 1.1//EN" "http://www.w3.org/Graphics/SVG/1.1/DTD/svg11.dtd">
<svg version="1.1" xmlns="http://www.w3.org/2000/svg" xmlns:xlink="http://www.w3.org/1999/xlink" x="0px" y="0px" viewBox="0 0 1000 1000" enable-background="new 0 0 1000 1000" xml:space="preserve">
<metadata> Svg Vector Icons : http://www.onlinewebfonts.com/icon </metadata>
<g><g><g><path d="M241.4,859.8c2.2-6,5.3-10.8,9.4-14.3c4.1-3.5,9.6-5.2,16.5-5.2c5,0,9.1,0.8,12.5,2.6c3.4,1.7,6,4,8.1,6.8c2,2.8,3.5,6.2,4.5,10c1,3.8,1.7,7.8,1.9,11.9h20.1c0-1.3-0.2-3.5-0.3-6.4c-0.2-2.9-0.8-6.1-1.8-9.6c-1-3.5-2.4-7.1-4.4-10.8c-2-3.7-4.7-7.1-8.2-10.1c-3.5-3.1-7.8-5.5-13.1-7.5c-5.3-1.9-11.7-2.9-19.3-2.9c-11,0-19.9,2.4-26.6,7.3c-6.7,4.8-11.9,11.2-15.6,19.1c-3.7,7.9-6.2,16.8-7.4,26.7c-1.2,9.9-1.8,19.8-1.8,29.8c0,10.7,0.6,21,1.8,31c1.2,10,3.5,18.8,7,26.5c3.5,7.7,8.5,13.8,14.9,18.4c6.4,4.6,14.8,6.9,25.2,6.9c8.9,0,16.4-2.4,22.3-7.3c5.9-4.8,10-10.7,12-17.5h0.5v21.7h14.8V904h-49.3v16.1h31.5c0,5.4-0.3,11.2-0.7,17.4c-0.6,6.3-1.8,12.1-3.7,17.4c-1.9,5.4-4.8,9.9-8.8,13.5c-3.9,3.6-9.3,5.4-16.2,5.4c-6.9,0-12.4-1.8-16.4-5.2c-4.1-3.5-7.2-8.3-9.3-14.3c-2.2-6-3.6-13.1-4.3-21.2c-0.7-8.1-1-16.8-1-26c0-9.2,0.3-17.9,1-26C237.8,873,239.2,865.9,241.4,859.8z"/><path d="M430.3,979.7c-0.7-1.8-1.3-4.2-1.8-7c-0.5-2.8-0.7-6.5-0.9-10.9l-1.3-27.3c-0.5-6.9-2.6-12.8-6.4-17.9c-3.7-5-9.1-7.9-16.1-8.7v-0.5c4.6-1,8.5-2.9,11.5-5.7c3.1-2.8,5.7-6,7.6-9.7c1.9-3.6,3.3-7.6,4.1-11.9c0.8-4.3,1.2-8.6,1.2-12.9c0-12.7-3.7-22.5-11-29.5c-7.3-7-17.3-10.5-29.9-10.5h-51.6v159.4H356v-71h26.5c2.6,0,5.1,0.2,7.7,0.5c2.6,0.4,5,1.4,7.2,3c2.2,1.6,4.2,3.9,5.8,6.9c1.6,3,2.5,7.3,3,12.8l1.3,24.8c0.2,2,0.3,4.1,0.5,6.4c0.3,2.3,0.6,4.6,1,6.7c0.4,2.1,0.9,4.1,1.6,5.9c0.6,1.8,1.3,3.1,2.2,4h23.3c-1.2-0.7-2.2-1.7-3.3-2.7C431.9,983.1,431.1,981.6,430.3,979.7z M396.2,895.9c-3.4,2-7,3-10.8,3.3c-3.8,0.3-7.1,0.4-10,0.4H356v-56.3h23.4c9.4,0,16.5,2.2,21.4,6.7c4.9,4.5,7.4,10.7,7.4,18.8c0,7.8-1.1,13.7-3.4,17.9C402.5,890.9,399.6,894,396.2,895.9z"/><polygon points="469.6,912.2 528.3,912.2 528.3,894.8 469.6,894.8 469.6,844.8 531.9,844.8 531.9,827.3 449.5,827.3 449.5,986.7 534.6,986.7 534.6,969.3 469.6,969.3 "/><polygon points="570.8,912.2 629.5,912.2 629.5,894.8 570.8,894.8 570.8,844.8 633,844.8 633,827.3 550.7,827.3 550.7,986.7 635.7,986.7 635.7,969.3 570.8,969.3 "/><polygon points="730.4,960.4 730,960.4 677.3,827.3 671.2,827.3 651.8,827.3 651.8,986.7 671.5,986.7 671.5,857.7 671.9,857.7 723,986.7 730.6,986.7 750,986.7 750,827.3 730.4,827.3 "/><path d="M906.8,356.9L537,21.9C519.7,6.2,493.4,6,475.8,21.5L93.6,358.1c-16.1,14.1-20.2,37.6-10,56.5c10.9,20,36.5,43.3,73.1,43.3c7.8,0,15.7-1,23.5-3.2v299c-0.1,7.8,1.4,28.3,17.3,44.8c11.4,11.8,27.2,18.4,44.5,18.4c20.4,0,189.5-0.2,189.6-0.2l128.2-0.5h185.6c18.6,0,35.5-7,47.6-19.6c16.9-17.6,18.3-39.4,18.2-47.8V451.1c10.3,3.3,20.6,4.8,30.5,4.8c38.5,0,64.4-23.6,75-43.8C926.4,393.6,922.3,370.9,906.8,356.9z M617.2,690.5c-85,85-175.7,43.5-230.2-4.7c-25.4,27.4-42.6,45.9-42.6,45.9l-92.1,4.8c0,0,44.8-27.4,109.5-76.2c-47.7-54.7-87.9-144.6-3.5-228.9c91.8-91.9,348.9-90,348.9-90S709,598.6,617.2,690.5z"/><path d="M386.7,669.8c4,0,8-1.5,11.1-4.5L625,446.1c6.3-6.1,6.5-16.2,0.4-22.5c-6.1-6.3-16.2-6.5-22.5-0.4L375.6,642.4c-6.4,6.1-6.5,16.2-0.5,22.5C378.4,668.2,382.5,669.8,386.7,669.8z"/></g></g><g></g><g></g><g></g><g></g><g></g><g></g><g></g><g></g><g></g><g></g><g></g><g></g><g></g><g></g><g></g></g>
</svg>