<?xml version="1.0" encoding="utf-8"?>
<!-- Generator: Adobe Illustrator 24.3.0, SVG Export Plug-In . SVG Version: 6.00 Build 0)  -->
<svg version="1.1" id="Layer_1" xmlns="http://www.w3.org/2000/svg" xmlns:xlink="http://www.w3.org/1999/xlink" x="0px" y="0px"
	 viewBox="0 0 512 512" style="enable-background:new 0 0 512 512;" xml:space="preserve">
<g>
	<path d="M192.1,68.3c-52.1,0-93.9,41.8-93.9,93.9S140,256,192.1,256c51.2,0,93.9-41.8,93.9-93.9C286,110.1,244.1,68.3,192.1,68.3z
		 M192.1,238.9c-42.7,0-76.8-34.1-76.8-76.8s34.1-76.8,76.8-76.8c41.8,0,76.8,34.1,76.8,76.8S234.8,238.9,192.1,238.9z"/>
	<path d="M473.7,273.1h-68.3c-5.1,0-8.5,3.4-8.5,8.5v68.3h-68.3v-68.3c0-5.1-3.4-8.5-8.5-8.5H317l19.3-39.3
		c25.6-50.3,23-109.2-6.8-157S249.3,0,192.1,0C134.9,0,83.7,29,53.8,76.8c-29,47.8-32.4,106.7-6.8,157l137.4,273.1
		c1.7,3.4,4.3,5.1,7.7,5.1c2.6,0,6-1.7,6.8-5.1l44.4-88.1v84.7c0,5.1,3.4,8.5,8.5,8.5h68.3c5.1,0,8.5-3.4,8.5-8.5v-68.3h68.3v68.3
		c0,5.1,3.4,8.5,8.5,8.5h68.3c5.1,0,8.5-3.4,8.5-8.5V281.6C482.2,276.5,478.8,273.1,473.7,273.1z M243.3,281.6v99.8l-51.2,103.3
		L63.2,226.1c-23-45.2-20.5-98.1,6-140.8s71.7-68.3,122.9-68.3c50.3,0,95.6,25.6,122.9,68.3c26.5,43.5,28.2,95.6,6,140.8L297,273.1
		h-45.2C246.7,273.1,243.3,276.5,243.3,281.6z M465.2,494.9H414v-68.3c0-5.1-3.4-8.5-8.5-8.5h-85.3c-5.1,0-8.5,3.4-8.5,8.5v68.3
		h-51.2V383.1v-93H303h8.5v68.3c0,5.1,3.4,8.5,8.5,8.5h85.3c5.1,0,8.5-3.4,8.5-8.5v-68.3h51.2V494.9z"/>
</g>
</svg>
