<?xml version="1.0" encoding="utf-8"?>
<!-- Svg Vector Icons : http://www.onlinewebfonts.com/icon -->
<!DOCTYPE svg PUBLIC "-//W3C//DTD SVG 1.1//EN" "http://www.w3.org/Graphics/SVG/1.1/DTD/svg11.dtd">
<svg version="1.1" xmlns="http://www.w3.org/2000/svg" xmlns:xlink="http://www.w3.org/1999/xlink" x="0px" y="0px" viewBox="0 0 1000 1000" enable-background="new 0 0 1000 1000" xml:space="preserve">
<metadata> Svg Vector Icons : http://www.onlinewebfonts.com/icon </metadata>
<g><g transform="translate(0.000000,412.000000) scale(0.100000,-0.100000)"><path d="M3699.7,3034.1c-187.5-42.1-323.4-116.7-453.5-250.7c-183.7-185.6-302.4-466.9-327.2-777l-11.5-149.3H1504.7H100.1v-191.4v-191.4h1406.5h1406.6v-1552v-1552l-72.7,59.3c-42.1,32.5-86.1,72.7-101.4,90c-15.3,19.1-76.5,70.8-137.8,116.7c-149.3,109.1-319.6,160.8-530.1,160.8c-273.7-1.9-436.3-72.7-692.8-306.2c-252.6-227.7-380.8-231.6-621.9-13.4c-74.6,67-174.1,149.3-220.1,179.9c-97.6,67-292.8,137.8-378.9,137.8h-57.4v-273.7V-1752l65.1-23c36.4-13.4,137.8-89.9,225.8-168.4c187.5-170.3,342.5-250.7,530.1-281.3c289-44,537.7,40.2,805.7,277.5c199,176.1,222,187.5,342.5,187.5c134,0,170.3-19.1,340.6-174.1c183.7-168.4,302.4-237.3,468.9-275.6c327.2-74.6,581.8,0,872.6,254.5c216.2,189.5,225.8,195.2,359.8,195.2c132,0,118.6,7.7,403.8-235.4c145.4-124.4,271.7-189.5,422.9-222c289-61.2,547.3,11.5,794.2,222c285.1,243,271.7,235.4,403.8,235.4c134,0,145.4-5.7,380.8-210.5c277.5-241.1,535.8-313.8,853.5-239.2c162.7,38.3,287.1,112.9,468.8,277.5c168.4,153.1,204.7,172.2,338.7,172.2c120.6,0,141.6-11.5,342.5-187.5c90-80.4,216.2-168.4,281.3-199c334.9-156.9,721.5-99.5,997,151.2l101.4,91.8l-5.7,329.2l-5.7,327.2l-99.5-47.8c-55.5-28.7-176.1-118.6-267.9-200.9c-281.3-252.6-394.2-252.6-671.7,3.8c-252.6,231.6-505.2,323.4-798,287.1c-227.7-28.7-313.8-76.6-639.2-357.9c-202.8-174.1-333-160.7-579.8,55.5c-183.7,162.7-329.2,252.6-455.4,283.2l-95.7,23V136.8v1337.7h1808.4h1808.4v191.4v191.4H8797.7H7697.4l-7.7,44c-5.7,23-13.4,103.3-19.1,178c-22.9,273.7-128.2,526.3-294.7,700.4c-271.7,285.1-719.6,359.8-1085.1,179.9c-313.8-155-507.1-472.7-566.4-926.2l-23-176.1h-407.6h-409.5v74.6c0,134-57.4,407.6-114.8,545.4c-109.1,258.3-298.5,444-543.5,528.2C4074.8,3057.1,3852.8,3068.5,3699.7,3034.1z M4023.1,2469.6c147.4-40.2,252.6-223.9,279.4-486.1l13.4-126.3h-415.3h-413.4v57.4c0,86.1,38.3,248.8,82.3,340.6C3659.5,2448.5,3824.1,2525.1,4023.1,2469.6z M6893.6,2440.9c114.8-59.3,210.5-283.2,210.5-491.8v-91.8h-413.3h-411.4l11.5,91.8c36.4,277.5,137.8,457.4,287.1,512.9C6667.8,2494.4,6807.5,2484.9,6893.6,2440.9z M5707.1,1330.9v-143.5H4597.2H3487.3v143.5v143.5h1109.9h1109.9V1330.9z M5707.1,182.7v-430.6H4597.2H3487.3v430.6v430.6h1109.9h1109.9V182.7z M5707.1-1059.2v-239.2l-61.2-42.1c-34.4-24.9-118.6-95.7-187.5-156.9c-267.9-244.9-401.9-243-681.3,9.6c-243,220.1-392.3,285.1-667.9,285.1c-214.3,0-334.9-36.4-497.6-143.5l-124.4-84.2v304.3V-822h1109.9h1109.9V-1059.2z"/><path d="M100.1-2764.3v-277.5l65.1-26.8c34.5-13.4,132-88,214.3-162.7c91.9-84.2,204.8-164.6,289-206.7c124.4-61.2,160.7-70.8,327.2-78.5c310-15.3,451.6,42.1,742.5,294.7c181.8,158.8,222,179.9,334.9,179.9c103.3,0,172.2-40.2,342.5-193.3c233.5-212.4,401.9-285.1,671.7-285.1c262.2,0,430.6,74.6,685.1,302.4c155,137.8,225.8,176.1,325.3,176.1c111,0,155-23,300.4-153.1c275.6-246.8,447.8-325.3,713.8-325.3c269.8,0,438.2,72.7,671.7,285.1c170.3,153.1,239.2,193.3,342.6,193.3c112.9,0,153.1-21,334.9-179.9c290.9-252.6,432.5-310,742.5-294.7c166.5,7.7,202.8,17.2,325.3,78.5c82.3,40.2,200.9,124.4,290.9,206.7c164.6,147.3,239.2,189.4,346.4,189.4c103.3,0,178-40.2,331.1-179.9c269.8-245,422.9-308.1,725.3-294.7c178,7.7,208.6,15.3,334.9,78.5c76.5,38.3,185.6,109.1,241.1,156.9l99.5,90v323.4c0,246.8-5.7,323.4-23,323.4c-49.7,0-225.8-116.7-355.9-237.3c-164.6-151.2-223.9-183.7-338.7-183.7c-114.8,0-181.8,36.4-350.2,191.4c-222,204.8-415.3,287.1-673.6,287.1c-239.2,0-442.1-84.2-635.3-266c-183.7-172.2-254.5-212.4-361.7-212.4c-128.2,0-166.5,19.1-334.9,170.3c-260.3,231.5-436.3,308.1-696.6,308.1c-256.4-1.9-419.1-70.8-652.6-281.3c-179.9-158.8-248.8-197.1-359.8-197.1c-112.9,0-151.2,21.1-333,178c-89.9,80.4-200.9,166.5-246.9,193.3c-111,65-285.1,107.2-436.3,107.2c-258.3-1.9-417.2-68.9-671.7-289c-195.2-170.3-231.6-189.5-344.5-189.5c-111,0-179.9,38.3-359.8,197.1c-233.5,210.5-396.1,279.4-652.6,281.3c-260.3,0-444-80.4-700.4-311.9c-164.6-147.4-202.9-166.5-331.1-166.5c-107.2,0-178,40.2-361.7,212.4c-130.1,122.5-264.1,199-415.3,239.2C90.5-2465.8,100.1-2450.5,100.1-2764.3z"/><path d="M100.1-4054.1v-281.3l63.1-23c32.5-11.5,132.1-86.1,216.2-162.7c191.4-170.3,308.1-235.4,489.9-273.7c323.4-68.9,587.5,21,887.9,300.5c147.3,137.8,183.7,156.9,302.4,156.9c122.5,1.9,176.1-26.8,365.5-195.2c181.8-164.6,333-243,522.4-271.7c296.6-44,543.5,42.1,809.5,283.2c195.2,176.1,212.4,183.7,342.5,183.7s147.4-7.6,342.5-183.7c266-241.1,512.9-327.2,811.4-283.2c187.5,28.7,340.6,109.1,516.7,267.9c181.8,166.5,244.9,200.9,369.3,199c118.7,0,155-19.1,302.4-156.9c300.4-279.4,564.5-369.4,887.9-300.5c179.9,36.4,298.5,103.3,480.4,266c181.8,164.6,235.4,193.3,357.8,191.4c120.6,0,145.4-15.3,329.2-179.9c413.4-375.1,884.1-398.1,1286-65.1l114.8,95.7v331.1c0,179.9-5.7,329.2-11.5,329.2c-45.9,0-254.5-139.7-386.6-258.3c-162.7-149.3-210.5-172.2-338.7-170.3c-101.4,1.9-160.8,36.3-338.7,195.2c-181.8,160.8-300.4,227.7-478.4,264.1c-164.6,34.4-336.8,22.9-493.7-36.4c-130.1-47.8-222-109.1-388.5-260.3c-158.8-143.5-189.5-160.8-308.1-160.8c-122.5-1.9-176,26.8-365.5,195.2c-260.3,233.5-497.6,315.8-788.4,271.7c-197.1-28.7-350.2-109.1-537.7-279.4c-172.2-155-195.2-170.3-287.1-189.4c-124.4-23-218.2,19.1-400,183.7c-273.7,246.9-520.5,333-813.3,285.1c-197.1-32.5-342.5-111-537.7-285.1c-181.8-164.6-275.6-206.7-400-183.7c-91.9,19.1-114.8,34.4-287.1,189.4c-187.5,170.3-340.6,250.7-537.7,279.4c-290.9,44-535.8-40.2-790.4-271.7c-183.7-166.5-239.2-197.1-363.6-195.2c-118.6,0-149.3,17.2-308.1,160.8c-223.9,202.8-344.5,269.8-545.4,302.4l-91.9,15.3V-4054.1z"/></g></g>
</svg>