<?xml version="1.0" encoding="utf-8"?>
<!-- Svg Vector Icons : http://www.onlinewebfonts.com/icon -->
<!DOCTYPE svg PUBLIC "-//W3C//DTD SVG 1.1//EN" "http://www.w3.org/Graphics/SVG/1.1/DTD/svg11.dtd">
<svg version="1.1" xmlns="http://www.w3.org/2000/svg" xmlns:xlink="http://www.w3.org/1999/xlink" x="0px" y="0px" viewBox="0 0 1000 1000" enable-background="new 0 0 1000 1000" xml:space="preserve">
<metadata> Svg Vector Icons : http://www.onlinewebfonts.com/icon </metadata>
<g><g><g><rect x="191.5" y="354.5" width="36.9" height="57.9"/><rect x="246.7" y="354.5" width="36.9" height="57.9"/><rect x="324.8" y="354.5" width="36.9" height="57.9"/><rect x="380.1" y="354.5" width="37" height="57.9"/><rect x="458.1" y="354.5" width="36.9" height="57.9"/><rect x="513.4" y="354.5" width="37" height="57.9"/><rect x="591.5" y="354.5" width="36.9" height="57.9"/><rect x="646.7" y="354.5" width="36.9" height="57.9"/><rect x="724.8" y="354.5" width="36.9" height="57.9"/><rect x="780" y="354.5" width="36.9" height="57.9"/><rect x="191.5" y="475.5" width="36.9" height="57.9"/><rect x="246.7" y="475.5" width="36.9" height="57.9"/><rect x="324.8" y="475.5" width="36.9" height="57.9"/><rect x="380.1" y="475.5" width="37" height="57.9"/><rect x="458.1" y="475.5" width="36.9" height="57.9"/><rect x="513.4" y="475.5" width="37" height="57.9"/><rect x="591.5" y="475.5" width="36.9" height="57.9"/><rect x="646.7" y="475.5" width="36.9" height="57.9"/><rect x="724.8" y="475.5" width="36.9" height="57.9"/><rect x="780" y="475.5" width="36.9" height="57.9"/><rect x="191.5" y="596.5" width="36.9" height="57.9"/><rect x="246.7" y="596.5" width="36.9" height="57.9"/><rect x="324.8" y="596.5" width="36.9" height="57.9"/><rect x="380.1" y="596.5" width="37" height="57.9"/><rect x="458.1" y="596.5" width="36.9" height="57.9"/><rect x="513.4" y="596.5" width="37" height="57.9"/><rect x="591.5" y="596.5" width="36.9" height="57.9"/><rect x="646.7" y="596.5" width="36.9" height="57.9"/><rect x="724.8" y="596.5" width="36.9" height="57.9"/><rect x="780" y="596.5" width="36.9" height="57.9"/><rect x="191.5" y="717.5" width="36.9" height="57.9"/><rect x="246.7" y="717.5" width="36.9" height="57.9"/><rect x="324.8" y="717.5" width="36.9" height="57.9"/><rect x="380.1" y="717.5" width="37" height="57.9"/><rect x="458.1" y="717.5" width="36.9" height="57.9"/><rect x="513.4" y="717.5" width="37" height="57.9"/><rect x="591.5" y="717.5" width="36.9" height="57.9"/><rect x="646.7" y="717.5" width="36.9" height="57.9"/><rect x="724.8" y="717.5" width="36.9" height="57.9"/><rect x="780" y="717.5" width="36.9" height="57.9"/><rect x="191.5" y="838.5" width="36.9" height="57.9"/><rect x="246.7" y="838.5" width="36.9" height="57.9"/><rect x="324.8" y="838.5" width="36.9" height="57.9"/><rect x="380.1" y="838.5" width="37" height="57.9"/><rect x="591.5" y="838.5" width="36.9" height="57.9"/><rect x="646.7" y="838.5" width="36.9" height="57.9"/><rect x="724.8" y="838.5" width="36.9" height="57.9"/><rect x="780" y="838.5" width="36.9" height="57.9"/><path d="M950.8,953.1H875V291.9c0-10.2-8.3-18.5-18.5-18.5h-22.5V118h5.8c10.2,0,18.5-8.3,18.5-18.5V28.5c0-10.2-8.3-18.5-18.5-18.5H160.1c-10.2,0-18.5,8.3-18.5,18.5v71.1c0,10.2,8.3,18.5,18.5,18.5h5.8v155.4h-22.5c-10.2,0-18.5,8.3-18.5,18.5V953H49.2c-10.2,0-18.5,8.3-18.5,18.5c0,10.2,8.3,18.5,18.5,18.5h901.6c10.2,0,18.5-8.3,18.5-18.5C969.3,961.3,961,953.1,950.8,953.1z M178.6,47h642.9v34.1H178.6V47z M202.9,118h594.3v155.4h-32.9v-72.2c0-29.5-24-53.6-53.6-53.6c-29.5,0-53.6,24-53.6,53.6v72.2h-33.3v-72.2c0-29.5-24-53.6-53.6-53.6s-53.6,24-53.6,53.6v72.2h-33.2v-72.2c0-29.5-24-53.6-53.6-53.6c-29.5,0-53.6,24-53.6,53.6v72.2H343v-72.2c0-29.5-24-53.6-53.6-53.6c-29.5,0-53.6,24-53.6,53.6v72.2h-32.9V118z M727.2,273.4H694v-72.2c0-9.2,7.5-16.6,16.6-16.6c9.2,0,16.6,7.5,16.6,16.6V273.4z M586.8,273.4h-33.3v-72.2c0-9.2,7.5-16.6,16.6-16.6c9.2,0,16.6,7.5,16.6,16.6V273.4z M446.4,273.4h-33.3v-72.2c0-9.2,7.5-16.6,16.6-16.6c9.2,0,16.6,7.5,16.6,16.6V273.4z M306,273.4h-33.3v-72.2c0-9.2,7.5-16.6,16.6-16.6c9.2,0,16.6,7.5,16.6,16.6V273.4z M513.4,953.1h-18.3v-77.8h18.3V953.1z M550.3,953.1v-96.3c0-10.2-8.3-18.5-18.5-18.5h-55.2c-10.2,0-18.5,8.3-18.5,18.5v96.3H161.9V310.3h676.1v642.7H550.3L550.3,953.1z"/></g></g><g></g><g></g><g></g><g></g><g></g><g></g><g></g><g></g><g></g><g></g><g></g><g></g><g></g><g></g><g></g></g>
</svg>