<?xml version="1.0" encoding="utf-8"?>
<!-- Generator: Adobe Illustrator 24.3.0, SVG Export Plug-In . SVG Version: 6.00 Build 0)  -->
<svg version="1.1" id="Capa_1" xmlns="http://www.w3.org/2000/svg" xmlns:xlink="http://www.w3.org/1999/xlink" x="0px" y="0px"
	 viewBox="0 0 487.5 487.5" style="enable-background:new 0 0 487.5 487.5;" xml:space="preserve">
<g>
	<path d="M424.8,127.3H126.3c-28.3,0-51.4-23.1-51.4-51.4c0-28.3,23.1-51.4,51.4-51.4h298.5c6.7,0,12.2-5.5,12.2-12.2
		C437,5.5,431.5,0,424.7,0H126.3C84.4,0,50.4,34.1,50.4,75.9v335.7c0,41.9,34.1,75.9,75.9,75.9h298.5c6.8,0,12.3-5.5,12.3-12.3
		V139.6C437.1,132.8,431.6,127.3,424.8,127.3z M412.5,463H126.3c-28.3,0-51.4-23.1-51.4-51.4V131.7c13.5,12.5,31.6,20.1,51.4,20.1
		h286.2V463z"/>
	<path d="M130.5,64.8c-6.8,0-12.3,5.5-12.3,12.3c0,6.8,5.5,12.3,12.3,12.3h280.1c6.8,0,12.3-5.5,12.3-12.3c0-6.8-5.5-12.3-12.3-12.3
		H130.5z"/>
	<path d="M233.6,353.9c17.9,0,34.2-6.4,47-17l52.3,54.4c0.7,0.7,1.6,1.1,2.5,1.1c0.9,0,1.8-0.3,2.4-1c1.4-1.3,1.4-3.6,0.1-5
		l-52.2-54.3c13.3-13.3,21.6-31.7,21.6-52c0-40.7-33.1-73.7-73.7-73.7s-73.7,33.1-73.7,73.7S193,353.9,233.6,353.9z M233.6,213.4
		c36.8,0,66.7,29.9,66.7,66.7c0,36.8-29.9,66.7-66.7,66.7c-36.8,0-66.7-29.9-66.7-66.7C166.9,243.3,196.9,213.4,233.6,213.4z"/>
</g>
</svg>
