<?xml version="1.0" encoding="iso-8859-1"?>
<!-- Generator: Adobe Illustrator 19.0.0, SVG Export Plug-In . SVG Version: 6.00 Build 0)  -->
<svg version="1.1" id="Layer_1" xmlns="http://www.w3.org/2000/svg" xmlns:xlink="http://www.w3.org/1999/xlink" x="0px" y="0px"
	 viewBox="0 0 490 490" style="enable-background:new 0 0 490 490;" xml:space="preserve">
<g id="XMLID_834_">
	<g>
		<g>
			<path d="M413.438,367.5h-22.969V7.656c0-4.228-3.428-7.656-7.656-7.656H76.562c-4.228,0-7.656,3.428-7.655,7.656v459.375
				C68.906,479.696,79.21,490,91.875,490h306.25c12.665,0,22.969-10.304,22.969-22.969v-91.875
				C421.094,370.928,417.666,367.5,413.438,367.5z M91.875,474.688c-4.222,0-7.657-3.436-7.657-7.657V15.312h290.939v451.719
				c0,2.684,0.463,5.261,1.312,7.657H91.875z M405.781,467.031c0,4.222-3.435,7.657-7.656,7.657s-7.656-3.436-7.656-7.657v-84.219
				h15.312V467.031z"/>
			<path d="M130.156,68.906h199.063c4.228,0,7.656-3.428,7.655-7.656c0-4.228-3.428-7.656-7.656-7.656H130.156
				c-4.228,0-7.656,3.428-7.656,7.656C122.5,65.478,125.928,68.906,130.156,68.906z"/>
			<path d="M329.219,99.531h-38.281c-4.229,0-7.657,3.429-7.657,7.657c0,4.228,3.429,7.656,7.657,7.656h38.281
				c4.228,0,7.656-3.428,7.656-7.656C336.875,102.959,333.447,99.531,329.219,99.531z"/>
			<path d="M130.156,252.656h130.156c4.229,0,7.657-3.428,7.656-7.656V107.187c0-4.228-3.428-7.656-7.656-7.656H130.156
				c-4.228,0-7.656,3.428-7.656,7.656V245C122.5,249.228,125.928,252.656,130.156,252.656z M137.812,114.844h114.844v122.5H137.812
				V114.844z"/>
			<path d="M329.219,145.469h-38.281c-4.229,0-7.657,3.428-7.657,7.656s3.429,7.656,7.657,7.656h38.281
				c4.228,0,7.656-3.428,7.656-7.656C336.875,148.897,333.447,145.469,329.219,145.469z"/>
			<path d="M329.219,191.406h-38.281c-4.229,0-7.657,3.428-7.657,7.656c0,4.229,3.429,7.657,7.657,7.657h38.281
				c4.228,0,7.656-3.428,7.656-7.657C336.875,194.834,333.447,191.406,329.219,191.406z"/>
			<path d="M329.219,237.344h-38.281c-4.229,0-7.657,3.428-7.657,7.656s3.429,7.656,7.657,7.656h38.281
				c4.228,0,7.656-3.428,7.656-7.656S333.447,237.344,329.219,237.344z"/>
			<path d="M130.156,298.594h45.938c4.228,0,7.656-3.428,7.656-7.656c0-4.228-3.428-7.656-7.656-7.656h-45.938
				c-4.228,0-7.656,3.428-7.656,7.656C122.5,295.166,125.927,298.594,130.156,298.594z"/>
			<path d="M329.219,283.282h-122.5c-4.228,0-7.656,3.428-7.656,7.656c0,4.228,3.428,7.656,7.656,7.656h122.5
				c4.228,0,7.656-3.428,7.656-7.656C336.875,286.71,333.447,283.282,329.219,283.282z"/>
			<path d="M130.156,344.531h145.469c4.228,0,7.657-3.427,7.656-7.656c0-4.228-3.428-7.656-7.656-7.656H130.156
				c-4.228,0-7.656,3.428-7.656,7.656C122.5,341.103,125.928,344.531,130.156,344.531z"/>
			<path d="M329.218,375.157H130.156c-4.228,0-7.656,3.428-7.656,7.656c0,4.228,3.428,7.656,7.656,7.656h199.063
				c4.228,0,7.656-3.428,7.655-7.656C336.874,378.585,333.446,375.157,329.218,375.157z"/>
			<path d="M329.218,421.094H191.406c-4.228,0-7.656,3.428-7.656,7.656c0,4.228,3.428,7.656,7.656,7.656h137.813
				c4.228,0,7.656-3.427,7.655-7.656C336.874,424.522,333.446,421.094,329.218,421.094z"/>
			<path d="M329.219,329.219H306.25c-4.228,0-7.656,3.428-7.656,7.656c0,4.228,3.428,7.656,7.656,7.656h22.969
				c4.228,0,7.656-3.427,7.656-7.656C336.875,332.647,333.447,329.219,329.219,329.219z"/>
			<path d="M160.781,421.094h-30.625c-4.228,0-7.656,3.428-7.656,7.656c0,4.228,3.428,7.656,7.656,7.656h30.625
				c4.229,0,7.656-3.427,7.656-7.656C168.437,424.522,165.009,421.094,160.781,421.094z"/>
		</g>
	</g>
</g>
<g>
</g>
<g>
</g>
<g>
</g>
<g>
</g>
<g>
</g>
<g>
</g>
<g>
</g>
<g>
</g>
<g>
</g>
<g>
</g>
<g>
</g>
<g>
</g>
<g>
</g>
<g>
</g>
<g>
</g>
</svg>
