<?xml version="1.0" encoding="utf-8"?>
<!-- Svg Vector Icons : http://www.onlinewebfonts.com/icon -->
<!DOCTYPE svg PUBLIC "-//W3C//DTD SVG 1.1//EN" "http://www.w3.org/Graphics/SVG/1.1/DTD/svg11.dtd">
<svg version="1.1" xmlns="http://www.w3.org/2000/svg" xmlns:xlink="http://www.w3.org/1999/xlink" x="0px" y="0px" viewBox="0 0 1000 1000" enable-background="new 0 0 1000 1000" xml:space="preserve">
<metadata> Svg Vector Icons : http://www.onlinewebfonts.com/icon </metadata>
<g><g transform="translate(0.000000,511.000000) scale(0.100000,-0.100000)"><path d="M7219.9,4986.1c-36-11.3-92.3-45-123.8-78.8l-54-58.5l-11.3-1071.1l-11.3-1073.4L5962,2693.1c-976.6-11.3-1064.4-13.5-1122.9-51.7c-123.8-83.3-126-103.5-126-1219.7V397.8H3689.2c-1116.1,0-1136.4-2.3-1219.7-126c-38.3-58.5-40.5-146.3-51.8-1122.9l-11.3-1057.6L1333.2-1920L262-1931.3l-58.5-54c-31.5-31.5-67.5-92.3-81-135C109-2169.8,100-2667.1,100-3371.5c0-1291.7-2.3-1264.7,141.8-1370.4l63-47.2h4698.6c4448.8,0,4698.6,2.2,4757.1,40.5c33.8,20.3,78.8,65.3,99,99c38.3,58.5,40.5,308.3,40.5,4757.1v4698.6l-47.2,63c-105.8,144-78.8,141.8-1381.7,139.5C7820.7,5008.6,7258.2,4997.3,7219.9,4986.1z M9326.2,105.2v-4320.6H5005.6H685.1v866.4v866.4h1048.6c929.4,0,1055.4,4.5,1111.6,36c137.3,83.2,135,60.7,135,1210.6v1048.6h1041.9c965.4,0,1046.4,2.3,1116.2,40.5c162,87.8,159.8,72,159.8,1235.4v1041.9h1048.6c1149.9,0,1127.4-2.3,1210.7,135c31.5,56.3,36,182.3,36,1111.6v1048.6h866.4h866.4V105.2z"/></g></g>
</svg>