<?xml version="1.0" encoding="utf-8"?>
<!-- Svg Vector Icons : http://www.onlinewebfonts.com/icon -->
<!DOCTYPE svg PUBLIC "-//W3C//DTD SVG 1.1//EN" "http://www.w3.org/Graphics/SVG/1.1/DTD/svg11.dtd">
<svg version="1.1" xmlns="http://www.w3.org/2000/svg" xmlns:xlink="http://www.w3.org/1999/xlink" x="0px" y="0px" viewBox="0 0 1000 1000" enable-background="new 0 0 1000 1000" xml:space="preserve">
<metadata> Svg Vector Icons : http://www.onlinewebfonts.com/icon </metadata>
<g><g><path d="M193.5,990h609c42.5,0,78.9-26.9,93.1-64.5H100.4C114.6,963.1,151,990,193.5,990z"/><rect x="94" y="816.7" width="807.9" height="66.9"/><path d="M97.6,774.8h800.8c-11.5-42.1-50.2-73.3-95.9-73.3h-609C147.7,701.5,109.1,732.7,97.6,774.8z"/><polygon points="699.8,10 301,10 32.1,317 967.9,317 967.9,316.2 "/><path d="M230.2,340.5v340.6h68.1l0-188.8h137.8H463c8.8,9.7,21.5,15.8,35.6,15.8c14.1,0,26.8-6.1,35.6-15.8h165.3v188.8H768V340.5h-68.7l-0.1,91H537.1c-8.7-11.8-22.7-19.4-38.5-19.4c-15.8,0-29.8,7.6-38.5,19.4h-25.8H298.4v-91H230.2z M498.6,432.2c15.4,0,28,12.5,28,28c0,15.4-12.5,28-28,28c-15.4,0-28-12.5-28-28C470.6,444.7,483.2,432.2,498.6,432.2z"/><path d="M447.4,609.3l14.1,72h72.9l13.1-72h-40.3v4.4c0,4.8-3.9,8.7-8.7,8.7h-0.1c-4.7,0-8.7-3.9-8.7-8.7v-4.4H447.4z"/><path d="M498.5,620.1c3.9,0,7-3.1,7-7v-84.7c0-3.9-3.1-7-7-7c-3.9,0-7,3.1-7,7v84.7C491.5,617,494.6,620.1,498.5,620.1z"/></g><g></g><g></g><g></g><g></g><g></g><g></g><g></g><g></g><g></g><g></g><g></g><g></g><g></g><g></g><g></g></g>
</svg>