<svg enable-background="new 0 0 1932.6 1521.6" viewBox="0 0 1932.6 1521.6" xmlns="http://www.w3.org/2000/svg"><path d="m889.3 932.1h164.2l350.1-767-165.3-3.5z" fill="#333"/><path d="m1550.9 562.8-172.3 369.3h344.6" fill="#ffc400"/><path d="m881.6 567.3-172.3 369.3h344.6" fill="#ffc400"/><path d="m231 932.9h164.2l350.1-767-165.3-3.5z" fill="#333"/><path d="m323.2 1108.8h-58.5l-8.7 18.1c-1.2 2.5-1.8 4.5-1.8 5.9 0 2.8 2.1 4.7 6.3 5.7v3h-42.5v-3c2.5-.5 4.4-1.4 5.7-2.6 1.3-1.3 2.8-3.7 4.5-7.4l47.3-98.9c1.5-3.1 2.3-5.7 2.3-7.5 0-2.9-1.8-5-5.5-6.2v-3h45.7v3c-3.7 1.1-5.6 2.9-5.6 5.6 0 1.8.6 3.9 1.8 6.2l49 99.1c2.1 4.2 3.9 7.1 5.5 8.6s3.7 2.6 6.3 3.1v3h-47.4v-3c4.2-.7 6.2-2.6 6.2-5.8 0-1.3-.6-3.3-1.9-5.8zm-8.1-17.6-20.9-45.8-21.2 45.8z" fill="#333"/><path d="m486.8 1103.7 15.9 23.3-2.2 1.6c-1.5-1.1-2.7-1.6-3.6-1.6-1.1 0-3.6 1.2-7.4 3.5-8.6 5-16.2 8.5-22.8 10.5-6.6 1.9-14.2 2.9-22.8 2.9-17.2 0-31.3-4.1-42.1-12.3-6.2-4.7-11.1-10.6-14.7-17.7-3.9-7.7-5.8-16-5.8-25 0-12.4 3.6-23.3 10.7-32.8 11.2-14.8 28.5-22.2 51.7-22.2 8.6 0 16.3 1 22.9 2.9 6.7 1.9 14.3 5.4 22.9 10.5 3.9 2.3 6.4 3.5 7.4 3.5.9 0 2.1-.5 3.6-1.6l2.2 1.7-15.9 23.1-2.1-1.5c.1-.8.1-1.2.2-1.4.1-.6.1-1 .1-1.2 0-3.1-4.2-6.5-12.7-10.4-8-3.7-16.1-5.5-24.3-5.5-11.4 0-20.9 3-28.3 9-8.5 6.8-12.7 15.4-12.7 26 0 10.7 4.2 19.4 12.7 26.1 7.5 6 16.9 8.9 28.3 8.9 8.9 0 17.8-2.2 26.7-6.7 6.9-3.5 10.4-6.6 10.4-9.2 0-.1-.1-1-.3-2.6z" fill="#333"/><path d="m549.4 1098.2v33.7c0 1.9.4 3.4 1.3 4.5.9 1 2.5 1.9 4.7 2.6v2.6h-37.3v-2.6c2.2-.6 3.8-1.4 4.7-2.5s1.4-2.6 1.4-4.5v-86.3c0-1.9-.4-3.4-1.3-4.4s-2.5-1.9-4.7-2.5v-2.6h69.2c9 0 15.8.5 20.5 1.4s8.9 2.6 12.6 4.9c7.6 5 11.4 13.1 11.4 24.3 0 8.5-2.3 15.2-7 20s-12.2 8.3-22.7 10.4l20 27.8c3.6 5.1 6.5 8.6 8.7 10.5 2.2 1.8 4.6 3 7.4 3.5v2.6h-44.4v-2.6c3.3-.9 4.9-2.3 4.9-4.2 0-1.4-1-3.5-3-6.3l-21.1-30.2h-25.3zm0-19.1h38.1c5.8 0 10.1-.6 12.8-1.9 3.9-1.7 5.8-5.1 5.8-10.1 0-4.5-1.4-7.6-4.1-9.3-2.7-1.8-7.6-2.6-14.6-2.6h-38.1v23.9z" fill="#333"/><path d="m710 1033.8c16.8 0 30.8 4.3 42 12.8 13.4 10.3 20.1 24.7 20.1 43.1 0 17.3-6.7 31.1-20.1 41.4-11.1 8.5-25 12.8-41.8 12.8s-30.7-4.3-41.8-12.8c-13.5-10.3-20.2-24.4-20.2-42.2 0-18 6.7-32.1 20.2-42.2 11.1-8.5 25-12.7 41.6-12.9zm.1 20c-10.9 0-19.8 3.5-26.6 10.5-6.4 6.5-9.5 14.7-9.5 24.6 0 9.8 3.2 18 9.5 24.5 6.9 7 15.8 10.6 26.7 10.6s19.8-3.5 26.6-10.6c6.4-6.5 9.5-14.5 9.5-24 0-10.4-3.2-18.7-9.5-25.1-6.9-6.9-15.8-10.4-26.7-10.5z" fill="#333"/><path d="m889.7 1045.6-12.7 24.6-2.3-1.2c0-2.1-.7-3.7-2-4.9-3.6-3.2-8.9-5.8-15.8-7.9-7-2.1-14-3.1-21.2-3.1-6.1 0-11.5.8-16.2 2.5-6.8 2.4-10.2 6-10.2 10.6 0 3.1 1.6 5.3 4.9 6.5 3.3 1.3 9.6 2.3 18.9 3.1l14.9 1.1c13 1 22.9 3.5 29.7 7.5 3.8 2.3 6.9 5.3 9.3 9 3.1 4.7 4.6 10 4.6 15.9 0 10.7-4.8 19.2-14.5 25.4-9.2 6-21.7 9-37.5 9-15.9 0-31.3-3.4-46.1-10.1-1-.4-1.9-.7-2.5-.7-1.3 0-2.4.8-3.5 2.3l-2.4-.9 10.8-25.8 2.4.9v.8c0 1.6.6 3 1.9 4.1 3.1 2.8 8.6 5.2 16.3 7.2s15.4 3.1 22.9 3.1c6.7 0 12.6-.9 17.9-2.6 6.5-2.1 9.8-5.6 9.8-10.4 0-3.8-2.3-6.5-6.8-8-3-1-8.5-1.9-16.3-2.5l-14.8-1.2c-8-.6-14.1-1.4-18.3-2.5-4.2-1-7.9-2.5-11-4.4-4-2.5-7.2-5.9-9.4-10.3s-3.4-9.1-3.4-14.2c0-11.6 5-20.4 14.9-26.5 9-5.5 20.2-8.3 33.5-8.3 7.2 0 14 .8 20.2 2.4 6.3 1.6 13.7 4.4 22.4 8.4 2.6 1.2 4.4 1.8 5.4 1.8s2.3-.7 3.9-2.1z" fill="#333"/><path d="m1008.5 1045.6-12.7 24.6-2.3-1.2c0-2.1-.7-3.7-2-4.9-3.6-3.2-8.9-5.8-15.8-7.9-7-2.1-14-3.1-21.2-3.1-6.1 0-11.5.8-16.2 2.5-6.8 2.4-10.2 6-10.2 10.6 0 3.1 1.6 5.3 4.9 6.5 3.3 1.3 9.6 2.3 18.9 3.1l14.9 1.1c13 1 22.9 3.5 29.7 7.5 3.8 2.3 6.9 5.3 9.3 9 3.1 4.7 4.6 10 4.6 15.9 0 10.7-4.8 19.2-14.5 25.4-9.2 6-21.7 9-37.5 9-15.9 0-31.3-3.4-46.1-10.1-1-.4-1.9-.7-2.5-.7-1.3 0-2.4.8-3.5 2.3l-2.4-.9 10.8-25.8 2.4.9v.8c0 1.6.6 3 1.9 4.1 3.1 2.8 8.6 5.2 16.3 7.2s15.4 3.1 22.9 3.1c6.7 0 12.6-.9 17.9-2.6 6.5-2.1 9.8-5.6 9.8-10.4 0-3.8-2.3-6.5-6.8-8-3-1-8.5-1.9-16.3-2.5l-14.8-1.2c-8-.6-14.1-1.4-18.3-2.5-4.2-1-7.9-2.5-11-4.4-4-2.5-7.2-5.9-9.4-10.3s-3.4-9.1-3.4-14.2c0-11.6 5-20.4 14.9-26.5 9-5.5 20.2-8.3 33.5-8.3 7.2 0 14 .8 20.2 2.4 6.3 1.6 13.7 4.4 22.4 8.4 2.6 1.2 4.4 1.8 5.4 1.8s2.3-.7 3.9-2.1z" fill="#333"/><path d="m1155.7 1141.6-47.4-88.9v79c0 1.9.4 3.4 1.3 4.4s2.5 1.8 4.7 2.5v3h-37.8v-3c2.3-.6 3.8-1.4 4.7-2.5.9-1 1.3-2.5 1.3-4.4v-108.9c0-1.9-.4-3.3-1.3-4.3s-2.5-1.8-4.7-2.4v-3h49.6v3c-3 .8-4.4 2.5-4.4 5.2 0 1.3.4 2.7 1.3 4.3l35.1 66.5 35.6-65.4c1.6-2.9 2.4-5 2.4-6.3 0-2.6-1.6-4-4.7-4.3v-3h48.6v3c-2.3.6-3.8 1.4-4.7 2.4s-1.3 2.5-1.3 4.3v108.9c0 1.9.4 3.4 1.3 4.4s2.5 1.8 4.7 2.5v3h-40.1v-3c2.2-.6 3.8-1.4 4.7-2.4s1.4-2.5 1.4-4.5v-79z" fill="#ffc400"/><path d="m1297.1 1085.1v35.2h82.7c1.9 0 3.3-.4 4.3-1.3s1.8-2.4 2.5-4.7h3v33.3h-3c-.6-2.3-1.4-3.8-2.5-4.7-1-.9-2.5-1.3-4.3-1.3h-116.9v-3c2.3-.6 3.8-1.4 4.7-2.5.9-1 1.3-2.5 1.3-4.4v-108.8c0-1.9-.4-3.4-1.3-4.4s-2.5-1.8-4.7-2.4v-3h114.6c1.9 0 3.3-.4 4.3-1.3s1.8-2.5 2.5-4.7h3v33.3h-3c-.6-2.2-1.4-3.8-2.5-4.7-1-.9-2.5-1.3-4.3-1.3h-80.5v30.5h52.2c1.9 0 3.3-.4 4.3-1.3s1.8-2.5 2.5-4.7h3v32.5h-3c-.6-2.2-1.4-3.8-2.5-4.7-1-.9-2.5-1.4-4.3-1.4h-52.1z" fill="#ffc400"/><path d="m1441.3 1053.5v78.2c0 1.9.4 3.4 1.3 4.4s2.5 1.8 4.7 2.5v3h-37.8v-3c2.3-.6 3.8-1.4 4.7-2.5.9-1 1.3-2.5 1.3-4.4v-108.9c0-1.9-.4-3.3-1.3-4.3s-2.5-1.8-4.7-2.4v-3h43.7v3c-2.7.7-4.1 2.1-4.1 4.3 0 1.5.9 3.2 2.6 5l71 73.8v-76.3c0-1.9-.4-3.3-1.3-4.3s-2.5-1.8-4.7-2.4v-3h37.8v3c-2.3.6-3.8 1.4-4.7 2.4s-1.3 2.5-1.3 4.3v108.9c0 1.9.4 3.4 1.3 4.4s2.5 1.8 4.7 2.5v3h-40.5v-3c2.6-.6 4-1.9 4-4.1 0-1.3-1.5-3.5-4.6-6.6z" fill="#ffc400"/><path d="m1672 1108.8h-58.5l-8.7 18.1c-1.2 2.5-1.8 4.5-1.8 5.9 0 2.8 2.1 4.7 6.3 5.7v3h-42.5v-3c2.5-.5 4.4-1.4 5.7-2.6 1.3-1.3 2.8-3.7 4.5-7.4l47.3-98.9c1.5-3.1 2.3-5.7 2.3-7.5 0-2.9-1.8-5-5.5-6.2v-3h45.6v3c-3.7 1.1-5.6 2.9-5.6 5.6 0 1.8.6 3.9 1.8 6.2l49 99.1c2.1 4.2 3.9 7.1 5.5 8.6s3.7 2.6 6.3 3.1v3h-47.4v-3c4.2-.7 6.2-2.6 6.2-5.8 0-1.3-.6-3.3-1.9-5.8zm-8.1-17.6-20.9-45.8-21.2 45.8z" fill="#ffc400"/><path d="m231 1209h1492.2" fill="none" stroke="#000" stroke-miterlimit="10" stroke-width="5"/><g fill="#333"><path d="m271.8 1269.8v56.1c0 1.1.3 2 .8 2.5.5.6 1.4 1 2.7 1.4v1.7h-23.1v-1.7c1.3-.4 2.2-.8 2.7-1.4s.8-1.4.8-2.5v-56.1h-23c-1.1 0-1.9.2-2.5.7s-1 1.4-1.4 2.7h-1.8v-19.1h1.7c.4 1.3.9 2.2 1.4 2.7.6.5 1.4.7 2.5.7h62.1c1.1 0 2-.2 2.5-.7s1-1.4 1.4-2.7h1.7v19.1h-1.7c-.4-1.3-.8-2.2-1.4-2.7s-1.4-.7-2.5-.7z"/><path d="m361 1306.6v19.4c0 1.1.3 2 .8 2.6s1.4 1.1 2.7 1.5v1.5h-21.5v-1.5c1.3-.3 2.2-.8 2.7-1.4s.8-1.5.8-2.6v-49.6c0-1.1-.3-2-.8-2.5-.5-.6-1.4-1.1-2.7-1.5v-1.5h39.8c5.2 0 9.1.3 11.8.8s5.1 1.5 7.3 2.8c4.4 2.9 6.6 7.5 6.6 14 0 4.9-1.3 8.8-4 11.5-2.7 2.8-7 4.8-13 6l11.5 16c2.1 3 3.8 5 5 6 1.2 1.1 2.7 1.7 4.3 2v1.5h-25.5v-1.5c1.9-.5 2.8-1.3 2.8-2.4 0-.8-.6-2-1.7-3.6l-12.1-17.4h-14.8zm0-11h21.9c3.3 0 5.8-.4 7.4-1.1 2.2-1 3.4-2.9 3.4-5.8 0-2.6-.8-4.4-2.4-5.4s-4.4-1.5-8.4-1.5h-21.9z"/><path d="m501.8 1316.4h-27.9l-3.1 6.6c-.8 1.6-1.1 2.8-1.1 3.7 0 1.7 1.2 2.8 3.5 3.3v1.5h-22.3v-1.5c1.4-.2 2.4-.6 3.1-1.2s1.5-1.8 2.4-3.6l22.2-44.9c.8-1.7 1.2-3.2 1.2-4.4 0-1.5-1-2.6-3-3.5v-1.5h23.6v1.5c-2 .8-3 2-3 3.7 0 1.2.5 2.7 1.4 4.4l23 43.5c1.3 2.4 2.3 3.9 3 4.6s1.8 1.2 3.3 1.5v1.5h-25.1v-1.5c2.3-.4 3.5-1.5 3.5-3.3 0-1.1-.5-2.5-1.4-4.2zm-4.3-8.5-9.9-19.5-9.5 19.5z"/><path d="m573 1326v-49.6c0-1.1-.3-2-.8-2.5-.5-.6-1.4-1.1-2.7-1.5v-1.5h35.6c7.4 0 13.2.9 17.5 2.8 6 2.6 10.3 6.9 13 12.9 1.8 4.2 2.8 9.1 2.8 14.7 0 10.4-3.1 18.2-9.3 23.6-2.8 2.4-6.1 4.1-9.8 5.2-3.8 1.1-8.5 1.6-14.1 1.6h-35.6v-1.5c1.3-.3 2.2-.8 2.7-1.4.4-.8.7-1.7.7-2.8zm14.5-5.4h15.5c7.1 0 12.3-1.6 15.5-4.9 3.4-3.4 5-8.2 5-14.5s-1.7-11.1-5-14.5c-1.7-1.7-3.7-2.9-6.2-3.7s-5.6-1.2-9.3-1.2h-15.5z"/><path d="m702.2 1305.8v14.8h38.5c1.1 0 2-.2 2.6-.7s1.1-1.4 1.4-2.7h1.5v17.9h-1.5c-.3-1.3-.8-2.2-1.4-2.7s-1.5-.8-2.6-.8h-56.5v-1.5c1.3-.3 2.2-.8 2.7-1.4s.8-1.5.8-2.6v-49.6c0-1.1-.3-2-.8-2.5-.5-.6-1.4-1.1-2.7-1.5v-1.5h54.8c1.2 0 2-.3 2.6-.8s1.1-1.4 1.4-2.7h1.5v17.9h-1.5c-.4-1.3-.8-2.2-1.4-2.7s-1.5-.7-2.6-.7h-36.9v13.3h22.9c1.1 0 2-.3 2.6-.8s1.1-1.4 1.5-2.7h1.5v17.5h-1.5c-.4-1.3-.8-2.2-1.4-2.7s-1.5-.8-2.6-.8z"/><path d="m877.4 1319.4h45.5c1.1 0 2-.3 2.5-.8.6-.5 1-1.4 1.4-2.7h1.7v19.1h-1.7c-.4-1.3-.8-2.2-1.4-2.7s-1.4-.8-2.5-.8h-65.1v-1.7c1.3-.4 2.2-.8 2.7-1.4s.8-1.4.8-2.5v-62.6c0-1.1-.3-2-.8-2.5-.5-.6-1.4-1-2.7-1.4v-1.7h23.1v1.7c-1.3.3-2.2.8-2.7 1.4s-.8 1.5-.8 2.6z"/><path d="m1005.8 1269.5c9.7 0 17.7 2.5 24.1 7.4 7.7 5.9 11.6 14.2 11.6 24.8 0 9.9-3.9 17.9-11.6 23.8-6.4 4.9-14.4 7.4-24 7.4-9.7 0-17.7-2.5-24-7.4-7.7-5.9-11.6-14-11.6-24.3 0-10.4 3.9-18.5 11.6-24.3 6.4-4.8 14.4-7.2 23.9-7.4zm.1 11.5c-6.3 0-11.4 2-15.3 6-3.7 3.8-5.5 8.5-5.5 14.1s1.8 10.3 5.5 14.1c3.9 4 9.1 6.1 15.4 6.1s11.4-2 15.3-6.1c3.7-3.7 5.5-8.3 5.5-13.8 0-6-1.8-10.8-5.5-14.4-4.1-3.9-9.2-5.9-15.4-6z"/><path d="m1142.1 1308.1h-13.8c-1.2 0-2 .3-2.6.8s-1.1 1.4-1.4 2.7h-1.5v-16.1h1.5c.4 1.3.8 2.2 1.4 2.7s1.5.8 2.6.8h28.9v1.6c-1.3.4-2.2.9-2.7 1.6s-.8 1.7-.8 2.9v12.8c0 1.1.3 2 .8 2.6s1.4 1.1 2.7 1.5v1.2c-11.7 6.5-23.4 9.7-35 9.7-10 0-18.2-2.4-24.4-7.1-3.4-2.6-6.1-5.8-8.1-9.6-2.4-4.6-3.6-9.4-3.6-14.6 0-7.2 2.2-13.5 6.6-19.1 6.9-8.6 17-12.9 30.5-12.9 5.9 0 12.6 1.3 20.2 3.9 3 1 4.8 1.5 5.3 1.5.6 0 1.3-.3 2.2-.9l1.3.7-7.2 15.3-1.3-.7c0-.1 0-.3 0-.3 0-1.3-1.3-2.7-4-4.1-4.9-2.6-10.3-4-15.9-4-6.5 0-11.9 1.8-16.1 5.4-4.4 3.8-6.6 8.8-6.6 15.2 0 6 2 10.7 6 14.3 4.1 3.7 9.9 5.5 17.3 5.5 7.1 0 13.1-1.3 17.9-4v-9.3z"/><path d="m1221.9 1276.4v49.6c0 1.1.3 2 .8 2.6s1.4 1.1 2.7 1.5v1.5h-21.5v-1.5c1.3-.3 2.2-.8 2.7-1.4s.8-1.5.8-2.6v-49.6c0-1.1-.3-2-.8-2.5-.5-.6-1.4-1.1-2.7-1.5v-1.5h21.5v1.5c-1.3.4-2.2.8-2.7 1.4-.5.5-.8 1.4-.8 2.5z"/><path d="m1331 1276.3-7.3 14.1-1.3-.7c0-1.2-.4-2.1-1.1-2.8-2.1-1.8-5.1-3.4-9.1-4.6s-8.1-1.8-12.2-1.8c-3.5 0-6.6.5-9.3 1.5-3.9 1.4-5.9 3.5-5.9 6.1 0 1.8.9 3 2.8 3.8 1.9.7 5.5 1.3 10.9 1.8l8.6.7c7.5.6 13.2 2 17.1 4.3 2.2 1.3 4 3 5.4 5.2 1.8 2.7 2.7 5.8 2.7 9.2 0 6.2-2.8 11.1-8.3 14.6-5.3 3.4-12.5 5.1-21.6 5.1s-18-1.9-26.5-5.8c-.6-.3-1.1-.4-1.5-.4-.7 0-1.4.4-2 1.3l-1.4-.5 6.2-14.9 1.4.5v.4c0 .9.4 1.7 1.1 2.4 1.8 1.6 4.9 3 9.4 4.1 4.4 1.2 8.8 1.8 13.2 1.8 3.8 0 7.3-.5 10.3-1.5 3.8-1.2 5.6-3.2 5.6-6 0-2.2-1.3-3.7-3.9-4.6-1.7-.6-4.9-1.1-9.4-1.5l-8.5-.7c-4.6-.4-8.1-.8-10.5-1.4s-4.5-1.4-6.3-2.5c-2.3-1.4-4.1-3.4-5.4-5.9s-2-5.2-2-8.2c0-6.6 2.9-11.7 8.6-15.2 5.2-3.2 11.6-4.8 19.3-4.8 4.2 0 8 .5 11.6 1.4s7.9 2.5 12.9 4.9c1.5.7 2.5 1 3.1 1s1.3-.4 2.2-1.2z"/><path d="m1411.1 1281.9v44.1c0 1.1.3 2 .8 2.6s1.4 1.1 2.7 1.5v1.5h-21.5v-1.5c1.3-.3 2.2-.8 2.7-1.4s.8-1.5.8-2.6v-44.2h-17.9c-1.2 0-2 .3-2.6.8s-1.1 1.4-1.4 2.7h-1.5v-17.9h1.5c.3 1.3.8 2.2 1.4 2.7s1.5.8 2.6.8h50.3c1.2 0 2-.3 2.6-.8s1.1-1.4 1.4-2.7h1.5v17.9h-1.5c-.4-1.3-.8-2.2-1.4-2.7s-1.5-.8-2.6-.8z"/><path d="m1495.4 1276.4v49.6c0 1.1.3 2 .8 2.6s1.4 1.1 2.7 1.5v1.5h-21.5v-1.5c1.3-.3 2.2-.8 2.7-1.4s.8-1.5.8-2.6v-49.6c0-1.1-.3-2-.8-2.5-.5-.6-1.4-1.1-2.7-1.5v-1.5h21.5v1.5c-1.3.4-2.2.8-2.7 1.4-.5.5-.8 1.4-.8 2.5z"/><path d="m1605.5 1309.8 9.2 13.4-1.2.9c-.9-.6-1.6-.9-2.1-.9-.6 0-2 .7-4.3 2-5 2.9-9.3 4.9-13.1 6s-8.2 1.7-13.1 1.7c-9.9 0-18-2.4-24.2-7.1-3.5-2.7-6.4-6.1-8.5-10.2-2.2-4.4-3.4-9.2-3.4-14.4 0-7.1 2.1-13.4 6.2-18.9 6.5-8.5 16.4-12.8 29.8-12.8 4.9 0 9.3.6 13.2 1.7 3.8 1.1 8.2 3.1 13.1 6 2.2 1.3 3.7 2 4.3 2 .5 0 1.2-.3 2.1-.9l1.2 1-9.2 13.3-1.2-.9c0-.4.1-.7.1-.8 0-.3.1-.6.1-.7 0-1.8-2.4-3.8-7.3-6-4.6-2.1-9.3-3.2-14-3.2-6.6 0-12 1.7-16.3 5.2-4.9 3.9-7.3 8.9-7.3 15s2.4 11.1 7.3 15c4.3 3.4 9.7 5.1 16.3 5.1 5.1 0 10.2-1.3 15.3-3.8 4-2 6-3.8 6-5.3 0-.1-.1-.6-.2-1.5z"/><path d="m1718.5 1276.3-7.3 14.1-1.3-.7c0-1.2-.4-2.1-1.1-2.8-2.1-1.8-5.1-3.4-9.1-4.6s-8.1-1.8-12.2-1.8c-3.5 0-6.6.5-9.3 1.5-3.9 1.4-5.9 3.5-5.9 6.1 0 1.8.9 3 2.8 3.8 1.9.7 5.5 1.3 10.9 1.8l8.6.7c7.5.6 13.2 2 17.1 4.3 2.2 1.3 4 3 5.4 5.2 1.8 2.7 2.7 5.8 2.7 9.2 0 6.2-2.8 11.1-8.3 14.6-5.3 3.4-12.5 5.1-21.6 5.1s-18-1.9-26.5-5.8c-.6-.3-1.1-.4-1.5-.4-.7 0-1.4.4-2 1.3l-1.4-.5 6.2-14.9 1.4.5v.4c0 .9.4 1.7 1.1 2.4 1.8 1.6 4.9 3 9.4 4.1 4.4 1.2 8.8 1.8 13.2 1.8 3.8 0 7.3-.5 10.3-1.5 3.8-1.2 5.6-3.2 5.6-6 0-2.2-1.3-3.7-3.9-4.6-1.7-.6-4.9-1.1-9.4-1.5l-8.5-.7c-4.6-.4-8.1-.8-10.5-1.4s-4.5-1.4-6.3-2.5c-2.3-1.4-4.1-3.4-5.4-5.9s-2-5.2-2-8.2c0-6.6 2.9-11.7 8.6-15.2 5.2-3.2 11.6-4.8 19.3-4.8 4.2 0 8 .5 11.6 1.4s7.9 2.5 12.9 4.9c1.5.7 2.5 1 3.1 1s1.3-.4 2.2-1.2z"/></g></svg>