<?xml version="1.0" encoding="utf-8"?>
<!-- Generator: Adobe Illustrator 24.3.0, SVG Export Plug-In . SVG Version: 6.00 Build 0)  -->
<svg version="1.1" id="Layer_1" xmlns="http://www.w3.org/2000/svg" xmlns:xlink="http://www.w3.org/1999/xlink" x="0px" y="0px"
	 viewBox="0 0 1200 1200" style="enable-background:new 0 0 1200 1200;" xml:space="preserve">
<style type="text/css">
	.st0{fill:#FFFFFF;}
	.st1{fill:url(#SVGID_1_);}
	.st2{fill:url(#SVGID_2_);}
	.st3{fill:url(#SVGID_3_);}
</style>
<rect x="-1.5" y="-3" class="st0" width="1203" height="1206"/>
<linearGradient id="SVGID_1_" gradientUnits="userSpaceOnUse" x1="601.5" y1="1203" x2="601.5" y2="1000">
	<stop  offset="0" style="stop-color:#FFFFFF"/>
	<stop  offset="0.3935" style="stop-color:#E3E3E3"/>
	<stop  offset="0.7419" style="stop-color:#D2D2D2"/>
	<stop  offset="1" style="stop-color:#CCCCCC"/>
</linearGradient>
<rect x="1" y="1000" class="st1" width="1201" height="203"/>
<linearGradient id="SVGID_2_" gradientUnits="userSpaceOnUse" x1="600" y1="876" x2="600" y2="472">
	<stop  offset="0" style="stop-color:#FFFFFF"/>
	<stop  offset="1" style="stop-color:#F2F2F2"/>
</linearGradient>
<path class="st2" d="M1200.5,801.5c-263.3,64.8-585,101.7-946,50.2c-89.2-12.7-174.2-29.9-255-50.2c0-89.4,0-178.8,0-268.3
	c43.9-19.2,116.2-46.2,207-56.8c263-30.9,392.4,109,654,118.9c77.6,3,194.7-4.4,340-62.1C1200.5,622.7,1200.5,712.1,1200.5,801.5z"
	/>
<linearGradient id="SVGID_3_" gradientUnits="userSpaceOnUse" x1="600" y1="1069.1733" x2="600" y2="747.715">
	<stop  offset="0" style="stop-color:#FFFFFF"/>
	<stop  offset="1" style="stop-color:#E6E6E6"/>
</linearGradient>
<path class="st3" d="M1200.5,1001c-163.8,37.6-378.7,70.9-631,68c-224.8-2.6-418.1-33.1-570-68c0-67.7,0-135.3,0-203
	c47.8,7.6,124.9,17.6,220,19c288.1,4.3,412.8-74.6,665-69c73,1.6,182.3,10.9,316,50C1200.5,865.7,1200.5,933.3,1200.5,1001z"/>
</svg>
