<?xml version="1.0" encoding="utf-8"?>
<!-- Generator: Adobe Illustrator 24.3.0, SVG Export Plug-In . SVG Version: 6.00 Build 0)  -->
<svg version="1.1" id="Layer_1" xmlns="http://www.w3.org/2000/svg" xmlns:xlink="http://www.w3.org/1999/xlink" x="0px" y="0px"
	 viewBox="0 0 300 300" style="enable-background:new 0 0 300 300;" xml:space="preserve">
<style type="text/css">
	.st0{fill:#0071BC;}
	.st1{fill:#FFFFFF;}
</style>
<g>
	<path class="st0" d="M285,87.2H15c-4.6,0-8.3,3.7-8.3,8.3v71.7c0,4.6,3.7,8.3,8.3,8.3h103.5l15.4,18.2l16.2,19.2l16.2-19.2
		l15.4-18.2H285c4.6,0,8.3-3.7,8.3-8.3V95.5C293.2,90.9,289.5,87.2,285,87.2z"/>
	<g>
		<path class="st1" d="M250.6,128.3c-1.7,0-3.2,1.4-3.2,3.2c0,1.7,1.4,3.2,3.2,3.2c1.7,0,3.2-1.4,3.2-3.2
			C253.7,129.7,252.3,128.3,250.6,128.3z"/>
		<path class="st1" d="M245.8,102.6c-1.1-1-2.8-1-3.9,0L212,129.8h8.7v26c0,1.6,1.3,2.9,2.9,2.9h40.5c1.6,0,2.9-1.3,2.9-2.9v-26h8.7
			L245.8,102.6z M258.7,130.8l-2,7.2c-0.2,0.6-0.8,1.2-1.4,1.4l-7.2,2c-0.6,0.2-1.5,0-1.9-0.5l-0.5-0.5l-4.7,4.7l0.2,2.3l-2.8,0.3
			l-0.2,0.2l0.2,2.2l-2.7,0.3l0.2-0.2l-0.5,0.5l0.2,2.2l-2.7,0.3l0,0l-4-4l12.8-13l-0.5-0.5c-0.4-0.4-0.7-1.3-0.5-1.9l2-7.2
			c0.2-0.6,0.8-1.2,1.4-1.4l7.2-2c0.6-0.2,1.4,0,1.9,0.5l5.1,5.1C258.7,129.3,258.9,130.2,258.7,130.8z"/>
	</g>
</g>
</svg>
